<?xml version="1.0" encoding="utf-8"?>
<!-- Uploaded to: SVG Repo, www.svgrepo.com, Generator: SVG Repo Mixer Tools -->
<svg width="800px" height="800px" viewBox="0 0 1024 1024" class="icon"  version="1.1" xmlns="http://www.w3.org/2000/svg"><path d="M512 512m-480 0a480 480 0 1 0 960 0 480 480 0 1 0-960 0Z" fill="#E9E8FF" /><path d="M467.2 332.8l230.4-83.2 44.8 83.2zM384 332.8l96-83.2 38.4 51.2-64 32z" fill="#C6C9FF" /><path d="M300.8 755.2c-25.6 0-51.2-25.6-51.2-51.2V384c0-25.6 25.6-51.2 51.2-51.2h428.8c25.6 0 51.2 25.6 51.2 51.2v313.6c0 25.6-25.6 51.2-51.2 51.2l-428.8 6.4z" fill="#8880FE" /><path d="M761.6 608H704c-25.6 0-51.2-19.2-51.2-51.2v-19.2c0-25.6 25.6-51.2 51.2-51.2h57.6c25.6 0 51.2 19.2 51.2 51.2v25.6c0 25.6-19.2 44.8-51.2 44.8z" fill="#C6C9FF" /></svg>