<?xml version="1.0" ?>
<!-- Uploaded to: SVG Repo, www.svgrepo.com, Generator: SVG Repo Mixer Tools -->
<svg width="800px" height="800px" viewBox="0 0 50 50" id="Layer_1" version="1.1" xml:space="preserve" xmlns="http://www.w3.org/2000/svg" xmlns:xlink="http://www.w3.org/1999/xlink">
<style type="text/css">
	.st0{fill:#EC6E62;}
	.st1{fill:#656766;}
	.st2{fill:#FFFFFF;}
</style>
<g>
<g>
<path class="st0" d="M44.7,16l-5.2-8.9c-0.4-0.6-1.1-1-1.8-1h-35C1.8,6.1,1,6.9,1,7.8v18.5c0,1,0.8,1.7,1.7,1.7h35    c0.7,0,1.4-0.4,1.8-1l5.2-8.9C45.1,17.5,45.1,16.7,44.7,16z M38.6,19.1c-1.1,0-2-0.9-2-2s0.9-2,2-2c1.1,0,2,0.9,2,2    S39.7,19.1,38.6,19.1z"/>
</g>
<g>
<path class="st1" d="M28.9,43.9c-0.3,0-0.7,0-1-0.1c-1.3-0.2-2.5-0.8-3.3-1.8c-1.3-1.6-1.7-4.2-1-6.5c0.7-1.9,2.1-3.6,4-4.5    c1.4-0.7,3.1-1.1,5.2-1.1c0.8,0,1.6,0,2.4,0c0.9,0,1.7,0.1,2.5,0c2.1-0.1,4.1-0.5,6.1-1.2c0.9-0.4,2-0.8,2.6-1.8    c0.8-1.2,0.9-3.1,0.2-4.7c-0.6-1.4-1.7-2.5-3.2-3.2c-1.4-0.6-3-0.8-4.5-0.9c-0.5,0-1-0.5-0.9-1c0-0.5,0.5-1,1-0.9    c1.7,0.1,3.5,0.3,5.2,1c1.9,0.9,3.4,2.4,4.2,4.2c0.9,2.2,0.8,4.8-0.4,6.6c-0.9,1.4-2.4,2.1-3.5,2.5c-2.2,0.8-4.4,1.3-6.7,1.3    c-0.9,0-1.8,0-2.7,0c-0.8,0-1.5-0.1-2.3,0c-1.8,0-3.2,0.3-4.4,0.9c-1.4,0.7-2.5,2-3,3.4c-0.5,1.6-0.3,3.5,0.6,4.6    c0.6,0.8,1.5,1,2.1,1.1c1.9,0.3,3.9-0.7,5.2-2.5c0.3-0.4,0.9-0.6,1.4-0.3s0.6,0.9,0.3,1.4C33.5,42.6,31.2,43.9,28.9,43.9z"/>
</g>
<g>
<path class="st2" d="M7.8,14.6v1.9H11v1.1H7.8v2.9H6.6v-7.1h4.7l0,1.1H7.8z"/>
<path class="st2" d="M18.4,15.8c0,1.2-0.5,1.9-1.5,2.2l1.9,2.6h-1.5l-1.7-2.4H14v2.4h-1.2v-7.1h2.6c1.1,0,1.9,0.2,2.3,0.5    C18.2,14.4,18.4,15,18.4,15.8z M16.8,16.8c0.2-0.2,0.4-0.5,0.4-1c0-0.5-0.1-0.8-0.4-1c-0.3-0.2-0.7-0.3-1.3-0.3H14v2.5h1.5    C16.1,17.1,16.6,17,16.8,16.8z"/>
<path class="st2" d="M25.1,13.5v1.1h-3.8v1.9h3.4v1.1h-3.4v1.9h3.9v1.1h-5.1v-7.1H25.1z"/>
<path class="st2" d="M31.8,13.5v1.1H28v1.9h3.4v1.1H28v1.9h3.9v1.1h-5.1v-7.1H31.8z"/>
</g>
</g>
</svg>