<!-- icon666.com - MILLIONS vector ICONS FREE --><svg version="1.1" id="Capa_1" xmlns="http://www.w3.org/2000/svg" xmlns:xlink="http://www.w3.org/1999/xlink" x="0px" y="0px" viewBox="0 0 512 512" style="enable-background:new 0 0 512 512;" xml:space="preserve"><circle style="fill:#2196F3;" cx="256" cy="256" r="256"></circle><g><path style="fill:#FAFAFA;" d="M112,208c8.832,0,16-7.168,16-16s-7.168-16-16-16H80c-8.832,0-16,7.168-16,16v128 c0,8.832,7.168,16,16,16s16-7.168,16-16v-48h16c8.832,0,16-7.168,16-16s-7.168-16-16-16H96v-32H112z"></path><path style="fill:#FAFAFA;" d="M336,208c8.832,0,16-7.168,16-16s-7.168-16-16-16h-32c-8.832,0-16,7.168-16,16v128 c0,8.832,7.168,16,16,16h32c8.832,0,16-7.168,16-16s-7.168-16-16-16h-16v-32h16c8.832,0,16-7.168,16-16s-7.168-16-16-16h-16v-32 H336z"></path><path style="fill:#FAFAFA;" d="M432,272c8.832,0,16-7.168,16-16s-7.168-16-16-16h-16v-32h16c8.832,0,16-7.168,16-16 s-7.168-16-16-16h-32c-8.832,0-16,7.168-16,16v128c0,8.832,7.168,16,16,16h32c8.832,0,16-7.168,16-16s-7.168-16-16-16h-16v-32H432z "></path><path style="fill:#FAFAFA;" d="M256,224c0-26.464-21.536-48-48-48h-32c-8.832,0-16,7.168-16,16v128c0,8.832,7.168,16,16,16 s16-7.168,16-16v-37.344l35.2,46.944c3.136,4.192,7.936,6.4,12.8,6.4c3.328,0,6.688-1.024,9.568-3.2 c7.072-5.312,8.512-15.328,3.2-22.4l-30.56-40.8C241.696,263.52,256,245.504,256,224z M208,240h-16v-32h16c8.832,0,16,7.168,16,16 S216.832,240,208,240z"></path><path style="fill:#FAFAFA;" d="M131.552,147.552c-4.096,0-8.192-1.568-11.328-4.672c-6.24-6.24-6.24-16.384,0-22.624 C156.512,83.968,204.704,64,256,64s99.488,19.968,135.744,56.224c6.24,6.24,6.24,16.384,0,22.624s-16.384,6.24-22.624,0 C338.912,112.64,298.72,96,256,96s-82.912,16.64-113.152,46.848C139.744,145.984,135.648,147.552,131.552,147.552z"></path><path style="fill:#FAFAFA;" d="M256,448c-51.296,0-99.488-19.968-135.776-56.256c-6.24-6.24-6.24-16.384,0-22.624 s16.384-6.24,22.624,0C173.088,399.328,213.28,416,256,416s82.912-16.672,113.12-46.88c6.24-6.24,16.384-6.24,22.624,0 s6.24,16.384,0,22.624C355.488,428.032,307.296,448,256,448z"></path></g></svg>