<!-- icon666.com - MILLIONS vector ICONS FREE --><svg id="Master_Line" viewBox="0 0 512 512" xmlns="http://www.w3.org/2000/svg" data-name="Master Line"><path d="m399.14066 291.54834-129.91857-74.96814a40.53916 40.53916 0 0 1 -20.27777-35.11267l170.4741 98.37029a13.52033 13.52033 0 0 1 -20.27776 11.71052z" fill="#ebeced"></path><path d="m19.05029 215.68341a35.45816 35.45816 0 0 0 29.11827-20.35941l26.06126-55.96056a35.45815 35.45815 0 0 0 -.51361-30.9956l-2.711-5.35059z" fill="#ebeced"></path><g fill="#5cd1fd"><path d="m428.31277 105.64407-39.29927 19.54429a38.63915 38.63915 0 0 1 -36.42691-1.07782l-32.66394-18.7308a25.67373 25.67373 0 0 0 -12.59042-3.4014l-63.95957-.45132a16.3064 16.3064 0 0 0 -10.60736 3.82358l-95.81688 80.54019a16.66819 16.66819 0 0 0 -5.89641 15.5141 16.315 16.315 0 0 0 16.42244 13.53572l29.43746-.6282a16.30648 16.30648 0 0 0 9.523-3.32331l40.398-30.72278a16.30668 16.30668 0 0 1 17.98285-1.16626l80.90658 46.39506 17.653 10.12293s53.36085 30.59924 84.57932 47.82974a24.35707 24.35707 0 0 1 5.98991 4.64822l6.64156-16.39585a38.63915 38.63915 0 0 1 16.27562-18.82928l33.24763-19.485a15.45561 15.45561 0 0 0 6.18193-19.88949l-47.09962-100.5687a15.4556 15.4556 0 0 0 -20.87892-7.28362z"></path><path d="m93.47838 283.55519h38.05705a23.80082 23.80082 0 0 1 23.80082 23.80081 23.80081 23.80081 0 0 1 -23.80081 23.80081h-38.05706a23.80081 23.80081 0 0 1 -23.80081-23.80081 23.80082 23.80082 0 0 1 23.80082-23.80082z" transform="matrix(.497 -.867 .867 .497 -210.089 252.059)"></path><path d="m125.06541 300.84421h58.48459a23.80081 23.80081 0 0 1 23.80081 23.80079 23.80082 23.80082 0 0 1 -23.80081 23.80089h-58.48459a23.80082 23.80082 0 0 1 -23.80082-23.80082 23.80081 23.80081 0 0 1 23.80082-23.80086z" transform="matrix(.497 -.867 .867 .497 -204.08 297.01)"></path><path d="m169.5621 325.13152h47.1251a23.80082 23.80082 0 0 1 23.8008 23.80081 23.80081 23.80081 0 0 1 -23.80081 23.80081h-47.12509a23.80081 23.80081 0 0 1 -23.80081-23.80081 23.80082 23.80082 0 0 1 23.80081-23.80081z" transform="matrix(.497 -.867 .867 .497 -205.641 342.888)"></path><path d="m213.59693 350.35137h28.90362a23.80082 23.80082 0 0 1 23.80082 23.80082 23.80081 23.80081 0 0 1 -23.80082 23.80081h-28.90362a23.80082 23.80082 0 0 1 -23.80082-23.80082 23.80081 23.80081 0 0 1 23.80081-23.80081z" transform="matrix(.497 -.867 .867 .497 -209.968 385.859)"></path></g><path d="m204.6755 100.72492a28.94475 28.94475 0 0 0 -15.03858 3.94434l-32.40478 16.60205a35.25358 35.25358 0 0 1 -31.854.09716l-37.03858-18.69091a18.955 18.955 0 0 0 -25.74268 8.96191l-46.58935 100.68213a18.93471 18.93471 0 0 0 7.40039 24.18506l32.041 19.35742a35.36334 35.36334 0 0 1 14.39748 16.88379l7.42041 18.31885a3.50014 3.50014 0 0 0 6.48828-2.62793l-7.42041-18.31885a42.41392 42.41392 0 0 0 -17.26563-20.24707l-32.04105-19.35742a11.94314 11.94314 0 0 1 -4.668-15.2544l46.58942-100.68213a11.95653 11.95653 0 0 1 16.23682-5.65234l37.03809 18.69092a42.26857 42.26857 0 0 0 38.19921-.1167l32.48926-16.645c.0586-.02979.11621-.061.17285-.09424a22.17623 22.17623 0 0 1 11.20606-3.03955c.11279 0 .227.00195.33887.00244a3.49991 3.49991 0 0 0 .04492-6.99951z" fill="#2a3853"></path><path d="m443.01241 297.2591a27.65 27.65 0 0 0 -13.36621-16.876c-30.83643-17.019-83.99658-47.4956-84.52979-47.80127l-98.55957-56.51806a3.5 3.5 0 1 0 -3.48242 6.07226l98.55958 56.51809c.53418.30615 53.74317 30.81055 84.6294 47.85791a20.69793 20.69793 0 0 1 10.00781 12.63379 20.91385 20.91385 0 0 1 -2.03955 16.15674l-.32129.561a20.66739 20.66739 0 0 1 -28.564 7.43994l-49.03614-29.4292a3.50006 3.50006 0 0 0 -3.60254 6.002l32.097 19.26312a20.29783 20.29783 0 0 1 -24.53156 31.87994l-22.69726-13.01574-.01026-.00623-.00268-.00116-18.17359-10.42169a3.5 3.5 0 0 0 -3.48242 6.07226l18.18134 10.42609a20.3007 20.3007 0 0 1 -20.20226 35.21844l-22.4571-12.87757-.0014-.00085-.00037-.00019-12.08264-6.92852a3.5 3.5 0 1 0 -3.48242 6.07226l12.08368 6.92914a20.30058 20.30058 0 0 1 7.51154 27.70905 20.67411 20.67411 0 0 1 -27.89356 7.749l-10.13672-5.646a3.5 3.5 0 0 0 -3.40625 6.11524l10.13672 5.646a27.32612 27.32612 0 0 0 13.3374 3.46143 27.68858 27.68858 0 0 0 24.03467-13.84326 27.12205 27.12205 0 0 0 2.667-20.72412c-.12695-.4682-.26727-.93036-.41717-1.38788l6.6242 3.79852a27.13848 27.13848 0 0 0 13.5376 3.62988 27.47278 27.47278 0 0 0 7.18653-.96289 27.30105 27.30105 0 0 0 19.20654-33.49316c-.12689-.468-.26721-.93-.417-1.38745l6.87359 3.94165a27.28755 27.28755 0 0 0 39.92261-30.80518l5.03052 3.019a27.47307 27.47307 0 0 0 14.18213 3.958 27.85616 27.85616 0 0 0 7.0288-.90673 27.45915 27.45915 0 0 0 17.02881-13.01221l.32129-.561a27.86232 27.86232 0 0 0 2.70741-21.52439z" fill="#2a3853"></path><path d="m215.49093 65.4051a3.49937 3.49937 0 0 1 -3.08155-1.83545l-12.38672-22.9043a3.5 3.5 0 0 1 6.15723-3.33008l12.38672 22.9043a3.50081 3.50081 0 0 1 -3.07568 5.16553z" fill="#f46e94"></path><path d="m294.75265 64.01056a3.50215 3.50215 0 0 1 -3.19385-4.92773l10.61426-23.77783a3.49982 3.49982 0 1 1 6.3916 2.85351l-10.61426 23.77784a3.5006 3.5006 0 0 1 -3.19775 2.07421z" fill="#f46e94"></path><path d="m309.70431 477.4466a3.49874 3.49874 0 0 1 -3.09668-1.86426l-12.17432-23.01806a3.49979 3.49979 0 1 1 6.1875-3.27247l12.17432 23.01807a3.501 3.501 0 0 1 -3.09082 5.13672z" fill="#f46e94"></path><path d="m207.41524 478.76935a3.50205 3.50205 0 0 1 -3.18066-4.957l10.834-23.67822a3.49988 3.49988 0 0 1 6.36524 2.91211l-10.834 23.67822a3.50142 3.50142 0 0 1 -3.18458 2.04489z" fill="#f46e94"></path></svg>